<svg fill="#fff" xmlns="http://www.w3.org/2000/svg" viewBox="0 0 50 50" width="50px" height="50px">
    <path fill="none" stroke="#fff" stroke-linejoin="round" stroke-miterlimit="10" stroke-width="2" d="M37,45H13	c-4.418,0-8-3.582-8-8V13c0-4.418,3.582-8,8-8h24c4.418,0,8,3.582,8,8v24C45,41.418,41.418,45,37,45z" />
    <line x1="34" x2="20" y1="17" y2="19.625" fill="none" stroke="#fff" stroke-linejoin="round" stroke-miterlimit="10" stroke-width="2" />
    <path fill="none" stroke="#fff" stroke-linejoin="round" stroke-miterlimit="10" stroke-width="2" d="M20,29c0,1.657-1.343,3-3,3	l-1.83,0c-1.624,0-3.081,1.216-3.166,2.839C11.914,36.569,13.29,38,15,38h0.5c2.485,0,4.5-2.015,4.5-4.5V29z" />
    <path fill="none" stroke="#fff" stroke-linejoin="round" stroke-miterlimit="10" stroke-width="2" d="M34,26c0,1.657-1.343,3-3,3	l-1.83,0c-1.624,0-3.081,1.216-3.166,2.839C25.914,33.569,27.29,35,29,35h0.5c2.485,0,4.5-2.015,4.5-4.5V26" />
    <path fill="none" stroke="#fff" stroke-linejoin="round" stroke-miterlimit="10" stroke-width="2" d="M20,29V15.353	c0-0.481,0.343-0.894,0.816-0.983l12.592-2.361C33.716,11.951,34,12.187,34,12.5V26" />
</svg>