<?xml version="1.0" standalone="no"?>
<!DOCTYPE svg PUBLIC "-//W3C//DTD SVG 20010904//EN" "http://www.w3.org/TR/2001/REC-SVG-20010904/DTD/svg10.dtd">
<svg version="1.0" xmlns="http://www.w3.org/2000/svg" width="2000.000000pt" height="1600.000000pt" viewBox="0 0 2000.000000 1600.000000" preserveAspectRatio="xMidYMid meet">

    <g transform="translate(0.000000,1600.000000) scale(0.100000,-0.100000)" fill="#fff" stroke="none">
        <path d="M2682 14059 c-39 -128 -71 -233 -69 -234 1 -1 1744 -606 3872 -1344
2129 -739 3875 -1347 3881 -1352 6 -5 1427 511 3685 1338 2021 741 3675 1347
3676 1348 8 5 -134 464 -142 461 -5 -2 -1627 -596 -3602 -1320 l-3593 -1318
-3802 1321 c-2092 726 -3810 1322 -3819 1326 -13 5 -28 -35 -87 -226z" />
        <path d="M6491 10709 c-146 -24 -291 -101 -411 -215 -285 -273 -430 -705 -430
-1282 0 -218 10 -333 45 -508 47 -232 146 -479 262 -651 29 -44 190 -217 415
-450 202 -208 394 -413 427 -455 117 -153 187 -297 239 -487 25 -92 26 -107
27 -356 0 -273 -11 -380 -56 -553 -60 -229 -179 -386 -332 -439 -79 -27 -209
-25 -266 6 -134 71 -262 262 -356 531 -38 110 -75 298 -75 381 l0 49 -240 0
-240 0 0 -43 c0 -81 21 -312 41 -451 69 -477 248 -852 507 -1058 134 -106 264
-158 397 -158 306 0 578 112 759 312 203 224 318 534 378 1018 18 144 18 704
0 825 -50 334 -156 619 -325 878 -60 91 -169 218 -483 561 -286 313 -348 386
-416 489 -143 218 -199 415 -183 647 17 267 87 461 210 585 103 105 228 140
333 95 132 -57 261 -297 298 -552 l6 -48 234 0 234 0 0 88 c0 299 -92 624
-243 854 -204 314 -448 438 -756 387z" />
        <path d="M8751 10709 c-146 -24 -291 -101 -411 -215 -285 -273 -430 -705 -430
-1282 0 -218 10 -333 45 -508 47 -232 146 -479 262 -651 29 -44 190 -217 415
-450 202 -208 394 -413 427 -455 117 -153 187 -297 239 -487 25 -92 26 -107
27 -356 0 -273 -11 -380 -56 -553 -60 -229 -179 -386 -332 -439 -79 -27 -209
-25 -266 6 -134 71 -262 262 -356 531 -38 110 -75 298 -75 381 l0 49 -240 0
-240 0 0 -43 c0 -81 21 -312 41 -451 69 -477 248 -852 507 -1058 134 -106 264
-158 397 -158 306 0 578 112 759 312 203 224 318 534 378 1018 18 144 18 704
0 825 -50 334 -156 619 -325 878 -60 91 -169 218 -483 561 -286 313 -348 386
-416 489 -143 218 -199 415 -183 647 17 267 87 461 210 585 103 105 228 140
333 95 132 -57 261 -297 298 -552 l6 -48 234 0 234 0 0 88 c0 299 -92 624
-243 854 -204 314 -448 438 -756 387z" />
        <path d="M1780 7635 l0 -2985 235 0 235 0 1 2083 c0 1234 4 2072 10 2057 4
-14 189 -900 409 -1970 221 -1070 404 -1955 408 -1968 5 -15 139 647 397 1966
l390 1989 3 -2078 2 -2079 260 0 260 0 0 2985 0 2985 -330 0 c-187 0 -330 -4
-330 -9 0 -5 -144 -721 -320 -1591 -176 -870 -320 -1586 -320 -1592 0 -6 -3
-9 -6 -5 -3 3 -151 722 -328 1599 l-322 1593 -327 3 -327 2 0 -2985z" />
        <path d="M4770 7635 l0 -2985 250 0 250 0 0 2985 0 2985 -250 0 -250 0 0
-2985z" />
        <path d="M11250 7635 l0 -2985 255 0 255 0 0 661 0 661 217 595 c153 416 220
589 225 576 8 -18 638 -2476 638 -2487 0 -3 144 -6 321 -6 l321 0 -7 27 c-3
16 -220 784 -482 1707 -261 924 -475 1686 -475 1695 -1 9 198 576 442 1260
243 685 445 1253 448 1263 4 18 -8 18 -284 16 l-288 -3 -533 -1609 c-292 -884
-534 -1611 -537 -1614 -4 -3 -6 722 -6 1611 l0 1617 -255 0 -255 0 0 -2985z" />
        <path d="M13780 7635 l0 -2985 250 0 250 0 0 2985 0 2985 -250 0 -250 0 0
-2985z" />
        <path d="M14480 7635 l0 -2985 920 0 920 0 0 425 0 425 -670 0 -670 0 0 2560
0 2560 -250 0 -250 0 0 -2985z" />
        <path d="M16380 7635 l0 -2985 920 0 920 0 0 425 0 425 -670 0 -670 0 0 2560
0 2560 -250 0 -250 0 0 -2985z" />
        <path d="M6374 2557 c-2067 -742 -3760 -1351 -3761 -1352 -2 -1 28 -105 66
-231 52 -174 72 -228 84 -226 8 1 1669 596 3690 1322 l3675 1320 3658 -1320
c2013 -726 3665 -1321 3673 -1323 11 -1 33 59 83 227 37 126 67 230 65 231 -1
1 -1671 603 -3712 1339 -2041 736 -3722 1344 -3736 1350 -24 12 -338 -99
-3785 -1337z" />
    </g>
</svg>